<svg width="18" height="18" viewBox="0 0 18 18" fill="none" xmlns="http://www.w3.org/2000/svg">
<g id="1161953_instagram_icon 2">
<g id="Group">
<path id="Vector" d="M8.95235 5.30176C6.73013 5.30176 4.88885 7.11128 4.88885 9.36525C4.88885 11.6192 6.69838 13.4287 8.95235 13.4287C11.2063 13.4287 13.0158 11.5875 13.0158 9.36525C13.0158 7.14303 11.1746 5.30176 8.95235 5.30176ZM8.95235 11.9684C7.52378 11.9684 6.34917 10.7938 6.34917 9.36525C6.34917 7.93668 7.52378 6.76207 8.95235 6.76207C10.3809 6.76207 11.5555 7.93668 11.5555 9.36525C11.5555 10.7938 10.3809 11.9684 8.95235 11.9684Z" fill="#F7FFFB"/>
<path id="Vector_2" d="M13.1746 6.12691C13.6831 6.12691 14.0952 5.71473 14.0952 5.20628C14.0952 4.69783 13.6831 4.28564 13.1746 4.28564C12.6661 4.28564 12.254 4.69783 12.254 5.20628C12.254 5.71473 12.6661 6.12691 13.1746 6.12691Z" fill="#F7FFFB"/>
<path id="Vector_3" d="M15.5555 2.82551C14.7301 1.96837 13.5555 1.52393 12.2222 1.52393H5.68252C2.92062 1.52393 1.07935 3.3652 1.07935 6.1271V12.635C1.07935 14.0001 1.52379 15.1747 2.41268 16.0319C3.26982 16.8573 4.41268 17.27 5.71427 17.27H12.1905C13.5555 17.27 14.6984 16.8255 15.5238 16.0319C16.3809 15.2065 16.8254 14.0319 16.8254 12.6668V6.1271C16.8254 4.79377 16.3809 3.65091 15.5555 2.82551ZM15.4285 12.6668C15.4285 13.6509 15.0793 14.4446 14.5079 14.9842C13.9365 15.5239 13.1428 15.8096 12.1905 15.8096H5.71427C4.76189 15.8096 3.96823 15.5239 3.39681 14.9842C2.82538 14.4128 2.53966 13.6192 2.53966 12.635V6.1271C2.53966 5.17472 2.82538 4.38107 3.39681 3.80964C3.93649 3.26996 4.76189 2.98424 5.71427 2.98424H12.2539C13.2063 2.98424 14 3.26996 14.5714 3.84139C15.1111 4.41281 15.4285 5.20647 15.4285 6.1271V12.6668Z" fill="#F7FFFB"/>
</g>
</g>
</svg>
