<svg width="21" height="21" viewBox="0 0 21 21" fill="none" xmlns="http://www.w3.org/2000/svg">
<g id="104501_twitter_bird_icon 3">
<path id="Vector" d="M19.5717 5.58011C18.9008 5.87829 18.1789 6.07943 17.4214 6.16944C18.1948 5.70642 18.7879 4.973 19.0675 4.09807C18.3441 4.52739 17.5433 4.83891 16.6902 5.00708C16.0075 4.27958 15.0344 3.82471 13.9576 3.82471C11.8903 3.82471 10.2142 5.50084 10.2142 7.5685C10.2142 7.8615 10.2472 8.14709 10.3113 8.42157C7.19976 8.26526 4.4409 6.77507 2.59438 4.50998C2.27212 5.06264 2.08765 5.70568 2.08765 6.39243C2.08765 7.69111 2.74847 8.83718 3.75304 9.50837C3.13963 9.48874 2.56215 9.3202 2.05728 9.0398C2.05691 9.05535 2.05691 9.07128 2.05691 9.08721C2.05691 10.9008 3.34744 12.4135 5.06024 12.758C4.74613 12.8432 4.41534 12.8892 4.07382 12.8892C3.83231 12.8892 3.59784 12.8658 3.36929 12.8217C3.84602 14.309 5.22841 15.3917 6.86639 15.4217C5.58512 16.4259 3.97122 17.0245 2.21693 17.0245C1.91504 17.0245 1.61685 17.0067 1.32385 16.9719C2.98109 18.0346 4.94874 18.6539 7.06271 18.6539C13.9491 18.6539 17.7144 12.9495 17.7144 8.00226C17.7144 7.84002 17.7111 7.67815 17.704 7.51739C18.4352 6.99065 19.0701 6.33094 19.5717 5.58011Z" fill="#F7FFFB"/>
</g>
</svg>
